<svg width="32" height="33" viewBox="0 0 32 33" fill="none" xmlns="http://www.w3.org/2000/svg">
<path d="M22.7075 16.9332L12.7075 26.9332C12.6146 27.0261 12.5043 27.0998 12.3829 27.15C12.2615 27.2003 12.1314 27.2262 12 27.2262C11.8686 27.2262 11.7385 27.2003 11.6171 27.15C11.4957 27.0998 11.3854 27.0261 11.2925 26.9332C11.1996 26.8402 11.1259 26.7299 11.0756 26.6086C11.0253 26.4872 10.9995 26.357 10.9995 26.2257C10.9995 26.0943 11.0253 25.9642 11.0756 25.8428C11.1259 25.7214 11.1996 25.6111 11.2925 25.5182L20.5863 16.2257L11.2925 6.93315C11.1049 6.74551 10.9995 6.49102 10.9995 6.22565C10.9995 5.96029 11.1049 5.70579 11.2925 5.51815C11.4801 5.33051 11.7346 5.2251 12 5.2251C12.2654 5.2251 12.5199 5.33051 12.7075 5.51815L22.7075 15.5182C22.8005 15.611 22.8742 15.7213 22.9246 15.8427C22.9749 15.9641 23.0008 16.0942 23.0008 16.2257C23.0008 16.3571 22.9749 16.4872 22.9246 16.6086C22.8742 16.73 22.8005 16.8403 22.7075 16.9332Z" fill="#0B3324"/>
</svg>
