<svg width="22" height="12" viewBox="0 0 22 12" fill="none" xmlns="http://www.w3.org/2000/svg">
<path d="M0.488096 0.469683C0.628721 0.329232 0.819345 0.250343 1.0181 0.250343C1.21685 0.250343 1.40747 0.329232 1.5481 0.469683L11.0181 9.93843L20.4881 0.469683C20.6303 0.337203 20.8183 0.26508 21.0126 0.268509C21.2069 0.271937 21.3923 0.350649 21.5297 0.488062C21.6671 0.625475 21.7458 0.810861 21.7493 1.00516C21.7527 1.19946 21.6806 1.38751 21.5481 1.52968L11.5481 11.5297C11.4075 11.6701 11.2168 11.749 11.0181 11.749C10.8193 11.749 10.6287 11.6701 10.4881 11.5297L0.488096 1.52968C0.347647 1.38906 0.268757 1.19843 0.268757 0.999683C0.268757 0.800933 0.347647 0.610308 0.488096 0.469683Z" fill="black"/>
</svg>
