<svg width="27" height="26" viewBox="0 0 27 26" fill="none" xmlns="http://www.w3.org/2000/svg">
<path d="M21.4475 15.105L17.4475 13.105C17.29 13.0265 17.1147 12.991 16.9391 13.002C16.7635 13.0129 16.594 13.07 16.4475 13.1675L14.6112 14.3925C13.7683 13.9291 13.0746 13.2354 12.6112 12.3925L13.8362 10.5562C13.9337 10.4098 13.9908 10.2402 14.0018 10.0646C14.0127 9.88907 13.9772 9.7137 13.8987 9.55625L11.8987 5.55625C11.8159 5.38884 11.6877 5.248 11.5289 5.14968C11.37 5.05137 11.1868 4.99952 11 5C9.67392 5 8.40215 5.52678 7.46447 6.46447C6.52678 7.40215 6 8.67392 6 10C6.00331 12.9164 7.16329 15.7123 9.22548 17.7745C11.2877 19.8367 14.0836 20.9967 17 21C17.6566 21 18.3068 20.8707 18.9134 20.6194C19.52 20.3681 20.0712 19.9998 20.5355 19.5355C20.9998 19.0712 21.3681 18.52 21.6194 17.9134C21.8707 17.3068 22 16.6566 22 16C22.0001 15.8142 21.9485 15.6321 21.8509 15.474C21.7533 15.3159 21.6136 15.1881 21.4475 15.105ZM17 19C14.6139 18.9974 12.3262 18.0483 10.639 16.361C8.95171 14.6738 8.00265 12.3861 8 10C7.99981 9.3064 8.23995 8.63416 8.67958 8.09768C9.1192 7.5612 9.73114 7.19362 10.4112 7.0575L11.8462 9.9325L10.625 11.75C10.5337 11.8869 10.4777 12.0442 10.4617 12.2079C10.4458 12.3717 10.4706 12.5368 10.5337 12.6888C11.2492 14.3892 12.602 15.742 14.3025 16.4575C14.4549 16.5235 14.6213 16.5505 14.7867 16.5361C14.9521 16.5217 15.1113 16.4663 15.25 16.375L17.0763 15.1575L19.9513 16.5925C19.8141 17.2734 19.4449 17.8856 18.9067 18.3247C18.3685 18.7637 17.6946 19.0024 17 19ZM14 3.09594e-07C11.7556 -0.000489452 9.54927 0.58011 7.59582 1.68529C5.64236 2.79046 4.00831 4.38256 2.85271 6.30662C1.69712 8.23069 1.05935 10.4212 1.00148 12.6648C0.943617 14.9085 1.46762 17.1289 2.5225 19.11L1.10375 23.3662C0.98623 23.7186 0.969175 24.0968 1.0545 24.4583C1.13982 24.8199 1.32414 25.1505 1.58681 25.4132C1.84948 25.6759 2.18012 25.8602 2.54166 25.9455C2.9032 26.0308 3.28136 26.0138 3.63375 25.8962L7.89 24.4775C9.63346 25.4048 11.5653 25.9228 13.5388 25.992C15.5123 26.0613 17.4757 25.68 19.2798 24.8772C21.084 24.0743 22.6816 22.871 23.9513 21.3586C25.221 19.8462 26.1294 18.0644 26.6077 16.1484C27.0859 14.2325 27.1214 12.2328 26.7114 10.301C26.3014 8.36934 25.4568 6.55642 24.2415 4.9999C23.0263 3.44337 21.4724 2.18415 19.6979 1.31782C17.9233 0.451486 15.9747 0.000810288 14 3.09594e-07ZM14 24C12.0662 24.0013 10.1664 23.4921 8.4925 22.5238C8.36994 22.4527 8.23369 22.4085 8.09275 22.394C7.95182 22.3796 7.80942 22.3953 7.675 22.44L3 24L4.55875 19.325C4.60368 19.1907 4.61956 19.0483 4.60534 18.9074C4.59112 18.7665 4.54712 18.6301 4.47625 18.5075C3.26371 16.4111 2.77689 13.9732 3.09129 11.572C3.40569 9.17068 4.50374 6.94027 6.21511 5.22674C7.92648 3.51321 10.1555 2.41234 12.5564 2.0949C14.9572 1.77747 17.3958 2.26122 19.4937 3.47111C21.5916 4.68099 23.2315 6.54939 24.1592 8.78644C25.0869 11.0235 25.2503 13.5042 24.6243 15.8436C23.9982 18.1831 22.6176 20.2505 20.6967 21.7253C18.7757 23.2 16.4218 23.9996 14 24Z" fill="#C8DCD4"/>
</svg>
